<svg width="311" height="58" fill="none" xmlns="http://www.w3.org/2000/svg"><path d="M4.856 11.576L.608 42.032A26.046 26.046 0 00.32 45.92C.32 53.336 2.408 56 10.256 56h14.328c7.56 0 10.656-4.104 10.656-8.208s-3.168-8.208-7.92-8.208c-2.16 0-4.68.864-7.416 2.952l-6.624 5.112c-3.672 2.808-5.76 4.392-7.272 4.392-1.224 0-2.808-1.224-2.808-3.096 0-1.44.864-3.384 2.088-5.616L20.48 15.104c1.368-2.592 1.944-4.824 1.944-6.696C22.424 2.936 17.816.2 13.712.2 8.816.2 5.936 3.872 4.856 11.576zm34.314 5.688c0 1.296.575 2.304 2.375 2.304h3.096c2.304 0 3.6.576 3.6 2.232 0 .36-.072.792-.216 1.296l-5.832 21.312c-1.944 7.2 1.872 12.672 10.08 12.672 5.544 0 11.304-2.448 10.8-7.272-.432-4.176-3.96-4.608-6.984-3.312l-8.64 3.744c-1.368.576-2.592-.648-2.592-2.088 0-.72.36-1.296 1.512-2.592l13.752-15.696c4.752-5.472 2.304-11.592-4.968-10.728l-4.896.576c-.648.072-1.872.072-1.872-1.152 0-.72.432-1.368 1.368-1.656l7.92-2.736c3.456-1.224 5.904-3.096 5.904-7.128 0-4.32-3.528-6.84-7.2-6.84-2.088 0-4.176.792-5.688 2.52l-8.136 9.36c-1.8 2.088-3.384 4.032-3.384 5.184zm86.091 30.744c0-4.464-3.6-7.416-8.352-7.488l-14.184-.144c-2.736 0-3.888-.576-3.888-2.232 0-1.728 1.368-2.592 3.096-3.168l11.808-4.176c10.152-3.6 11.952-7.992 11.952-12.888 0-6.48-4.248-17.712-22.032-17.712-21.888 0-32.184 18.648-32.184 43.128 0 10.296 4.968 13.752 9.432 13.752 8.208 0 9.072-6.336 6.264-12.96l-7.344-17.28c-.576-1.368-.936-2.808-.936-4.176 0-5.112 4.032-9.504 11.448-9.504h22.536c5.256 0 7.992 2.736 7.992 6.264 0 3.744-2.52 7.2-10.224 6.192l-21.888-2.808c-2.664-.36-4.104.144-4.176 2.016 0 1.008.72 2.52 2.304 4.536l17.784 21.528c3.96 4.824 7.776 6.192 10.656 6.192 7.488 0 9.936-4.536 9.936-9.072zm36.308-8.784l-18.576.432c-6.336.144-11.52 2.52-11.52 8.28 0 6.768 4.68 9.144 8.856 9.144 5.904 0 11.232-5.328 14.544-8.136l7.056-6.048c2.52-2.16 4.608-1.656 4.608 2.304v3.744c0 4.392 2.808 8.136 8.712 8.136 7.416 0 9.864-6.192 8.352-14.256l-6.552-34.632C176.113 3.296 173.161.2 168.841.2c-4.68 0-7.272 1.872-13.536 6.84l-14.472 11.52c-3.312 2.664-5.472 5.472-5.472 8.568 0 4.464 3.456 7.992 7.704 7.992 2.664 0 6.696-.936 9-5.688l8.712-17.856c1.08-2.232 3.672-7.704 6.696-8.28 3.024-.576 4.968 1.944 4.464 5.904l-3.096 25.488c-.432 3.672-3.168 4.464-7.272 4.536zm39.298 17.856c7.776 0 9.216-6.768 5.976-14.76l-9.792-23.976c-.648-1.584-1.296-4.824-1.296-6.84 0-4.104 2.376-7.128 6.408-7.128 2.592 0 4.824 1.872 4.248 5.544l-.648 4.104c-.936 5.976 2.088 12.384 4.968 16.344l11.952 16.56c5.112 7.056 7.344 10.152 11.736 10.152 4.68 0 7.056-3.168 7.848-10.08l3.672-33.336c.72-6.624-1.44-13.536-8.568-13.536-6.048 0-7.92 4.68-7.92 8.352 0 1.728-.144 4.032 1.656 8.64l6.624 17.064c.936 2.376 1.512 4.032 1.512 5.328 0 1.584-.864 2.376-2.664 2.376-1.296 0-2.304-1.008-4.032-3.744l-17.064-26.712C211.163 4.664 207.995.2 202.307.2c-7.704 0-11.088 3.6-11.088 19.8v19.44c0 10.44.216 17.64 9.648 17.64zm65.076 0c7.344 0 7.128-7.56 2.448-13.104l-1.152-1.368c-1.944-2.376-3.024-4.824-2.016-6.408 1.872-2.952 4.392-1.512 7.992 1.224l18.792 14.256c4.68 3.528 7.776 5.4 12.24 5.4 4.032 0 6.984-4.608 6.264-8.928-.864-5.04-3.888-7.056-10.44-8.496l-22.536-4.896c-2.808-.576-6.624-1.008-6.984-3.168-.288-1.584.288-3.24 2.736-4.392l25.056-12.024c2.088-1.008 4.104 1.224 3.456 3.312l-2.664 8.712c-1.008 3.312 1.008 5.112 3.24 5.256 2.448.072 5.184-1.728 4.608-5.76l-2.592-18C303.527 2.576 299.495.2 295.175.2c-4.752 0-6.552 2.952-10.728 7.92l-19.728 23.472c-2.88 3.384-6.552.504-4.32-2.952l9-13.752c1.44-2.16 2.376-4.536 1.8-7.992-.648-3.6-3.96-6.696-9.072-6.696-5.184 0-7.776 3.672-7.416 9.936l2.52 37.656c.504 6.84 4.608 9.288 8.712 9.288z" fill="#E8E5DE"/></svg>